<svg width="22" height="22" fill="none" xmlns="http://www.w3.org/2000/svg"><g clip-path="url(#clip0)"><path d="M16.162 8.112l-2.888-3.651A3.109 3.109 0 0011.29 3.32V1.437a.44.44 0 00-.439-.439.44.44 0 00-.439.439V3.32a3.051 3.051 0 00-1.979 1.14L5.537 8.118c-.25.32-.391.715-.391 1.123v10.967a1.798 1.798 0 001.804 1.791h7.789a1.798 1.798 0 001.813-1.782V9.24c0-.408-.14-.803-.39-1.128zm-5.31-.513c.706 0 1.276.57 1.276 1.277 0 .706-.57 1.277-1.277 1.277a1.278 1.278 0 010-2.554zm4.827 12.608a.92.92 0 01-.935.913H6.96a.92.92 0 01-.935-.913V9.24c0-.21.07-.417.202-.58l2.892-3.655a2.2 2.2 0 011.294-.794v2.554a2.154 2.154 0 00-1.672 2.55 2.154 2.154 0 002.55 1.672 2.154 2.154 0 001.672-2.55 2.158 2.158 0 00-1.672-1.672V4.21a2.188 2.188 0 011.29.794l2.897 3.651a.943.943 0 01.202.584v10.967z" fill="url(#paint0_linear)"/><path d="M12.251 17.003a1.47 1.47 0 00-1.4-1.027.588.588 0 11.588-.588.44.44 0 00.44.44.44.44 0 00.438-.44 1.47 1.47 0 00-1.027-1.4v-.193a.44.44 0 00-.439-.439.44.44 0 00-.439.44v.192a1.469 1.469 0 00-.96 1.84 1.47 1.47 0 001.4 1.026.588.588 0 11-.589.588.44.44 0 00-.439-.439.44.44 0 00-.438.44c0 .64.417 1.206 1.027 1.4v.219a.44.44 0 00.438.439.44.44 0 00.44-.44v-.219a1.468 1.468 0 00.96-1.838z" fill="url(#paint1_linear)"/></g><defs><linearGradient id="paint0_linear" x1="5.146" y1="11.586" x2="16.552" y2="11.586" gradientUnits="userSpaceOnUse"><stop stop-color="#BFA874"/><stop offset=".521" stop-color="#EED9AB"/><stop offset="1" stop-color="#BFA874"/></linearGradient><linearGradient id="paint1_linear" x1="9.384" y1="16.454" x2="12.319" y2="16.454" gradientUnits="userSpaceOnUse"><stop stop-color="#BFA874"/><stop offset=".521" stop-color="#EED9AB"/><stop offset="1" stop-color="#BFA874"/></linearGradient><clipPath id="clip0"><path fill="#fff" transform="translate(.35 .998)" d="M0 0h21v21H0z"/></clipPath></defs></svg>