<svg width="21" height="23" fill="none" xmlns="http://www.w3.org/2000/svg"><path d="M18.963 3.848H17.22v-2.49a.655.655 0 00-.654-.654h-1.45a.655.655 0 00-.654.654v.17h-1.409V.654A.655.655 0 0012.4 0h-1.45a.655.655 0 00-.654.654v.05h-1.43a.655.655 0 00-.654.654v2.49h-5.01c-.285 0-.553.111-.754.313a1.06 1.06 0 00-.312.754v2.242h-.153a1.013 1.013 0 000 2.025h.153v.879h-.153a1.013 1.013 0 000 2.024h.153v.879h-.153a1.013 1.013 0 000 2.024h.153v.879h-.153a1.013 1.013 0 000 2.024h.153v3.346c-.01.466.163.907.488 1.24A1.71 1.71 0 003.862 23h14.767c.772 0 1.4-.628 1.4-1.4V4.915c0-.588-.478-1.067-1.066-1.067zm-3.825-2.47h1.408v2.47h-1.408V1.38zm-.675.825v1.645h-1.409V2.203h1.409zM10.97.675h1.408v3.173H10.97V.675zm-2.084.704h1.409v2.47H8.887v-2.47zm-7.242 6.79c0-.186.152-.337.338-.337h.846a.338.338 0 010 .675h-.846a.338.338 0 01-.338-.337zm0 2.904c0-.186.152-.338.338-.338h.846a.338.338 0 010 .675h-.846a.338.338 0 01-.338-.337zm0 2.903c0-.186.152-.337.338-.337h.846a.338.338 0 010 .674h-.846a.338.338 0 01-.338-.337zm0 2.903c0-.186.152-.337.338-.337h.846a.338.338 0 010 .675h-.846a.338.338 0 01-.338-.338zm17.71 4.72c0 .4-.326.726-.726.726H3.861c-.286 0-.553-.113-.753-.318a1.044 1.044 0 01-.297-.763c.015-.563.5-1.021 1.08-1.021H7.3a.337.337 0 100-.675H3.89c-.405 0-.78.139-1.08.37v-2.027h.018a1.013 1.013 0 000-2.024H2.81v-.879h.018a1.013 1.013 0 000-2.024H2.81v-.88h.018a1.013 1.013 0 000-2.024H2.81v-.878h.018a1.013 1.013 0 000-2.025H2.81V4.915a.39.39 0 01.391-.392h15.76c.217 0 .392.176.392.392v13.908c0 .4-.325.725-.725.725h-9.89a.337.337 0 000 .675h9.891c.265 0 .514-.074.725-.203v1.58z" fill="url(#paint0_linear)"/><path d="M18.342 16.146a.337.337 0 00.338-.337V5.536a.337.337 0 00-.338-.338H5.182a.337.337 0 00-.337.338v2.59a.337.337 0 00.675 0V5.873h12.485v9.599h-2.54V14.41a.337.337 0 10-.674 0v1.062h-1.539v-.816a1.491 1.491 0 00-2.98 0v.816H8.733v-3.738l3.03-2.457 3.028 2.457v1.239a.337.337 0 10.675 0v-.776a.748.748 0 00.773-.25l.334-.412a.742.742 0 00.163-.548.742.742 0 00-.272-.503L12.4 7.188c-.37-.3-.906-.3-1.275 0L7.06 10.484a.742.742 0 00-.273.503.743.743 0 00.163.548l.334.412a.746.746 0 00.774.25v3.275H5.52V9.563a.337.337 0 00-.675 0v6.246a.338.338 0 00.338.338h13.159zM7.81 11.522l-.334-.412a.07.07 0 01-.015-.053.071.071 0 01.026-.049l4.064-3.296a.337.337 0 01.425 0l4.064 3.296a.07.07 0 01.026.049.07.07 0 01-.016.053l-.334.412a.072.072 0 01-.101.01l-3.639-2.951a.337.337 0 00-.425 0L7.91 11.532a.072.072 0 01-.102-.01zm3.138 3.134a.816.816 0 011.63 0v.816h-1.63v-.816z" fill="url(#paint1_linear)"/><path d="M10.61 11.19a.337.337 0 000 .676h2.305a.337.337 0 100-.675H10.61z" fill="url(#paint2_linear)"/><defs><linearGradient id="paint0_linear" x1=".971" y1="11.597" x2="20.029" y2="11.597" gradientUnits="userSpaceOnUse"><stop stop-color="#BFA874"/><stop offset=".521" stop-color="#EED9AB"/><stop offset="1" stop-color="#BFA874"/></linearGradient><linearGradient id="paint1_linear" x1="4.845" y1="10.719" x2="18.68" y2="10.719" gradientUnits="userSpaceOnUse"><stop stop-color="#BFA874"/><stop offset=".521" stop-color="#EED9AB"/><stop offset="1" stop-color="#BFA874"/></linearGradient><linearGradient id="paint2_linear" x1="10.272" y1="11.531" x2="13.252" y2="11.531" gradientUnits="userSpaceOnUse"><stop stop-color="#BFA874"/><stop offset=".521" stop-color="#EED9AB"/><stop offset="1" stop-color="#BFA874"/></linearGradient></defs></svg>