<svg width="14" height="14" fill="none" xmlns="http://www.w3.org/2000/svg"><path d="M13.6 1.914a.527.527 0 00-.746-.001l-6.33 6.313-2.284-2.48a.528.528 0 00-.776.714l2.655 2.885a.527.527 0 00.377.17h.012c.14 0 .273-.056.372-.154L13.6 2.66a.528.528 0 000-.746z" fill="url(#paint0_linear)"/><path d="M13.472 6.472a.528.528 0 00-.527.528A5.951 5.951 0 017 12.945 5.951 5.951 0 011.055 7 5.952 5.952 0 017 1.055.528.528 0 107 0C3.14 0 0 3.14 0 7s3.14 7 7 7 7-3.14 7-7a.528.528 0 00-.528-.528z" fill="url(#paint1_linear)"/><defs><linearGradient id="paint0_linear" x1="8.539" y1="1.759" x2="8.539" y2="9.515" gradientUnits="userSpaceOnUse"><stop stop-color="#FFE5AC"/><stop offset="0" stop-color="#FFE5AC"/><stop offset="1" stop-color="#B99C5D"/></linearGradient><linearGradient id="paint1_linear" x1="7" y1="0" x2="7" y2="14" gradientUnits="userSpaceOnUse"><stop stop-color="#FFE5AC"/><stop offset="0" stop-color="#FFE5AC"/><stop offset="1" stop-color="#B99C5D"/></linearGradient></defs></svg>