<svg width="27" height="27" fill="none" xmlns="http://www.w3.org/2000/svg"><path d="M13.5 27C20.956 27 27 20.956 27 13.5S20.956 0 13.5 0 0 6.044 0 13.5 6.044 27 13.5 27z" fill="#D9BD89"/><path d="M8.252 8.193a7.449 7.449 0 00-1.178 9l-1.038 3.746 5.98 5.98c.487.052.982.08 1.484.08 6.549 0 12.008-4.662 13.24-10.849l-7.958-7.957a7.445 7.445 0 00-10.53 0z" fill="#D9BD89"/><path d="M18.782 8.194a7.445 7.445 0 00-10.53 0 7.449 7.449 0 00-1.178 8.999L6.036 20.94l3.747-1.038a7.448 7.448 0 009-1.178 7.445 7.445 0 000-10.53z" fill="#fff"/><path d="M17.599 16.116c-.003-.222-.21-.403-.465-.434a6.198 6.198 0 01-1.757-.48.499.499 0 00-.562.092 10.83 10.83 0 01-.383.39 7.087 7.087 0 01-3.141-3.14c.128-.132.258-.259.391-.383a.5.5 0 00.092-.562 6.194 6.194 0 01-.48-1.757c-.031-.254-.212-.462-.434-.465h-.553c-.806-.046-1.504 1.056-1.154 2.325a8.775 8.775 0 006.12 6.121c1.27.35 2.372-.348 2.326-1.154v-.553z" fill="#D9BD89"/></svg>