<svg width="15" height="20" fill="none" xmlns="http://www.w3.org/2000/svg"><path d="M14.509 4.429L10.55.47a.395.395 0 00-.28-.116H1.959c-.873 0-1.583.71-1.583 1.584V17.77c0 .873.71 1.584 1.583 1.584h11.083c.874 0 1.584-.71 1.584-1.584V4.71a.396.396 0 00-.116-.28zm-3.843-2.723l2.607 2.607h-1.815a.793.793 0 01-.792-.792V1.706zm3.167 16.065a.793.793 0 01-.792.792H1.958a.793.793 0 01-.792-.792V1.938c0-.437.356-.792.792-.792h7.917v2.375c0 .873.71 1.583 1.583 1.583h2.375v12.667z" fill="#A38A54"/><path d="M9.518 11.975a11.463 11.463 0 01-.947-.817c-.301-.301-.57-.594-.803-.872.364-1.125.523-1.705.523-2.015 0-1.314-.474-1.583-1.187-1.583-.542 0-1.188.281-1.188 1.621 0 .59.324 1.308.965 2.141-.157.48-.341 1.032-.548 1.654-.1.3-.208.576-.323.832a6.576 6.576 0 00-.27.127c-.315.157-.614.299-.891.43-1.264.599-2.1.995-2.1 1.776 0 .568.617.919 1.188.919.736 0 1.848-.983 2.66-2.639.842-.332 1.89-.579 2.716-.733.663.51 1.395.997 1.75.997.98 0 1.187-.568 1.187-1.043 0-.936-1.07-.936-1.584-.936-.16 0-.588.047-1.148.14zm-5.58 3.421a.626.626 0 01-.397-.127c0-.28.837-.677 1.647-1.06.051-.025.103-.05.156-.074-.594.862-1.182 1.261-1.407 1.261zm2.77-7.087c0-.83.258-.83.396-.83.28 0 .396 0 .396.792 0 .167-.112.585-.315 1.237-.311-.479-.477-.89-.477-1.199zm.304 4.255l.071-.21c.147-.44.28-.836.397-1.192.165.18.342.366.532.556.074.074.258.241.503.45a17.04 17.04 0 00-1.503.396zm4.446.206c0 .178 0 .251-.367.254-.108-.023-.357-.17-.665-.38a2.63 2.63 0 01.24-.018c.585 0 .751.057.792.144z" fill="#A38A54"/></svg>