<svg width="42" height="42" fill="none" xmlns="http://www.w3.org/2000/svg"><g clip-path="url(#clip0)"><path d="M7.912 28.726l.013-.005a.706.706 0 00.195-.132c.007-.007.016-.01.023-.016L28.785 7.931l1.964-1.967a3.475 3.475 0 10-4.915-4.914L23.87 3.015 21.904 4.98 3.227 23.656c-.006.007-.008.016-.014.023a.688.688 0 00-.133.195v.007L.132 30.754a.695.695 0 00.912.913l6.868-2.941zM26.817 2.035a2.136 2.136 0 012.949 0 2.085 2.085 0 010 2.948l-1.474 1.475-2.95-2.951 1.475-1.472zM24.36 4.49l2.95 2.948-.984.986-2.949-2.951.983-.983zM2.093 29.706l1.86-4.34 2.48 2.48-4.34 1.86zm2.608-5.558L22.395 6.456l2.948 2.948L7.65 27.097l-2.95-2.95z" fill="url(#paint0_linear)"/><path d="M41.496 1.742a.695.695 0 00-.758.151L1.818 40.814a.695.695 0 00.49 1.187H41.23a.695.695 0 00.695-.695V2.384a.695.695 0 00-.43-.642zm-.961 9.678H37.06a.695.695 0 000 1.39h3.475v2.78H38.45a.695.695 0 000 1.39h2.085v2.78H37.06a.695.695 0 000 1.39h3.475v2.78H38.45a.695.695 0 000 1.39h2.085v2.78H37.06a.695.695 0 000 1.39h3.475v2.78H38.45a.695.695 0 000 1.39h2.085v2.78H37.06a.695.695 0 000 1.39h3.475v2.78H3.986L40.535 4.063v7.358z" fill="url(#paint1_linear)"/><path d="M18.596 34.847c.13.13.307.203.492.203h15.191a.695.695 0 00.695-.695v-15.19a.695.695 0 00-1.186-.492l-15.192 15.19a.695.695 0 000 .984zm14.988-14.005V33.66H20.765l12.82-12.818z" fill="url(#paint2_linear)"/></g><defs><linearGradient id="paint0_linear" x1="40.046" y1="0" x2="29.655" y2="32.343" gradientUnits="userSpaceOnUse"><stop stop-color="#DAB171"/><stop offset="0" stop-color="#F3DEAD"/><stop offset=".5" stop-color="#F4E6CB"/><stop offset="1" stop-color="#D9BD89"/></linearGradient><linearGradient id="paint1_linear" x1="52.406" y1="1.689" x2="39.202" y2="42.789" gradientUnits="userSpaceOnUse"><stop stop-color="#DAB171"/><stop offset="0" stop-color="#F3DEAD"/><stop offset=".5" stop-color="#F4E6CB"/><stop offset="1" stop-color="#D9BD89"/></linearGradient><linearGradient id="paint2_linear" x1="39.286" y1="18.468" x2="33.855" y2="35.374" gradientUnits="userSpaceOnUse"><stop stop-color="#DAB171"/><stop offset="0" stop-color="#F3DEAD"/><stop offset=".5" stop-color="#F4E6CB"/><stop offset="1" stop-color="#D9BD89"/></linearGradient><clipPath id="clip0"><path fill="#fff" d="M0 0h42v42H0z"/></clipPath></defs></svg>