<svg width="22" height="22" fill="none" xmlns="http://www.w3.org/2000/svg"><g filter="url(#filter0_d)"><path d="M17.6 1.914a.527.527 0 00-.746-.001l-6.33 6.313-2.284-2.48a.528.528 0 00-.776.714l2.655 2.885a.527.527 0 00.761.016L17.6 2.66a.528.528 0 000-.746z" fill="url(#paint0_linear)"/><path d="M17.472 6.472a.528.528 0 00-.527.528A5.951 5.951 0 0111 12.945 5.951 5.951 0 015.055 7 5.952 5.952 0 0111 1.055.528.528 0 1011 0C7.14 0 4 3.14 4 7s3.14 7 7 7 7-3.14 7-7a.528.528 0 00-.528-.528z" fill="url(#paint1_linear)"/></g><defs><linearGradient id="paint0_linear" x1="12.539" y1="1.759" x2="12.539" y2="9.515" gradientUnits="userSpaceOnUse"><stop stop-color="#FFE5AC"/><stop offset="0" stop-color="#FFE5AC"/><stop offset="1" stop-color="#B99C5D"/></linearGradient><linearGradient id="paint1_linear" x1="11" y1="0" x2="11" y2="14" gradientUnits="userSpaceOnUse"><stop stop-color="#FFE5AC"/><stop offset="0" stop-color="#FFE5AC"/><stop offset="1" stop-color="#B99C5D"/></linearGradient><filter id="filter0_d" x="0" y="0" width="22" height="22" filterUnits="userSpaceOnUse" color-interpolation-filters="sRGB"><feFlood flood-opacity="0" result="BackgroundImageFix"/><feColorMatrix in="SourceAlpha" values="0 0 0 0 0 0 0 0 0 0 0 0 0 0 0 0 0 0 127 0"/><feOffset dy="4"/><feGaussianBlur stdDeviation="2"/><feColorMatrix values="0 0 0 0 0 0 0 0 0 0 0 0 0 0 0 0 0 0 0.25 0"/><feBlend in2="BackgroundImageFix" result="effect1_dropShadow"/><feBlend in="SourceGraphic" in2="effect1_dropShadow" result="shape"/></filter></defs></svg>