<svg width="11" height="18" fill="none" xmlns="http://www.w3.org/2000/svg"><path d="M6.44 18H3.647c-.467 0-.846-.392-.846-.873v-6.502H1.17c-.466 0-.846-.392-.846-.873V6.966c0-.481.38-.873.846-.873H2.8V4.698c0-1.384.42-2.56 1.217-3.404C4.818.448 5.936 0 7.25 0l2.13.004c.466 0 .845.392.845.873v2.586c0 .482-.38.874-.846.874H7.945c-.437 0-.549.09-.573.118-.039.046-.086.176-.086.536v1.102h1.986c.149 0 .294.038.418.11a.881.881 0 01.436.763l-.002 2.786c0 .481-.38.873-.846.873H7.286v6.502c0 .481-.38.873-.846.873zm-2.617-1.055h2.44v-6.792c0-.322.254-.583.566-.583h2.273V7.148H6.83a.575.575 0 01-.565-.583V4.991c0-.413.04-.882.342-1.234.364-.426.939-.475 1.339-.475h1.258V1.058L7.25 1.055c-2.113 0-3.427 1.396-3.427 3.643v1.867a.575.575 0 01-.564.583H1.348V9.57h1.91c.312 0 .565.261.565.583v6.792z" fill="#A38A54"/></svg>