<svg width="27" height="27" fill="none" xmlns="http://www.w3.org/2000/svg"><g clip-path="url(#clip0)"><path d="M13.5 27.002c7.456 0 13.5-6.044 13.5-13.5S20.956.002 13.5.002 0 6.046 0 13.502s6.044 13.5 13.5 13.5z" fill="#D9BD89"/><path d="M14.648 21.967h-2.727a.826.826 0 01-.827-.825v-6.14H9.503a.826.826 0 01-.826-.825v-2.631c0-.455.37-.825.826-.825h1.591V9.404c0-1.307.412-2.418 1.189-3.215.781-.8 1.873-1.222 3.156-1.222l2.08.003c.456.001.826.37.826.825v2.443a.826.826 0 01-.826.824l-1.401.001c-.427 0-.536.085-.56.112-.038.043-.083.166-.083.505v1.041h1.938a.827.827 0 01.834.825v2.631a.828.828 0 01-.827.825h-1.945v6.14a.827.827 0 01-.827.825zm-2.555-.997h2.383v-6.414c0-.304.248-.551.552-.551h2.22v-2.287h-2.22a.552.552 0 01-.552-.55V9.68c0-.39.04-.832.334-1.165.356-.402.917-.449 1.308-.449h1.228v-2.1l-1.907-.003c-2.064 0-3.346 1.319-3.346 3.44v1.764c0 .304-.248.55-.552.55H9.675v2.288h1.866c.304 0 .552.247.552.55v6.415zm5.425-15.003z" fill="#030303"/></g><defs><clipPath id="clip0"><path fill="#fff" d="M0 0h27v27H0z"/></clipPath></defs></svg>