<svg width="27" height="27" fill="none" xmlns="http://www.w3.org/2000/svg"><path d="M13.5 27C20.956 27 27 20.956 27 13.5S20.956 0 13.5 0 0 6.044 0 13.5 6.044 27 13.5 27z" fill="#D9BD89"/><path d="M19.76 7.01c-1.613.204-3.295.197-4.987.036-2.364-.182-5.818-1.273-7.091.909-2.045 3.493-1.036 7.964-.56 11.922l7.105 7.104c6.876-.365 12.387-5.875 12.753-12.751l-7.22-7.22z" fill="#D9BD89"/><path d="M16.623 5.773h-6.246a4.61 4.61 0 00-4.604 4.604v6.246a4.61 4.61 0 004.604 4.604h6.246a4.61 4.61 0 004.604-4.604v-6.246a4.61 4.61 0 00-4.604-4.604zm3.05 10.85a3.05 3.05 0 01-3.05 3.05h-6.246a3.05 3.05 0 01-3.05-3.05v-6.246a3.05 3.05 0 013.05-3.05h6.246a3.05 3.05 0 013.05 3.05v6.246z" fill="#fff"/><path d="M13.5 9.503A4.002 4.002 0 009.503 13.5a4.002 4.002 0 003.997 3.997 4.001 4.001 0 003.997-3.997A4.002 4.002 0 0013.5 9.503zm0 6.439a2.442 2.442 0 110-4.885 2.442 2.442 0 010 4.885zm4.962-6.409a.958.958 0 11-1.915 0 .958.958 0 011.915 0z" fill="#fff"/><path d="M16.623 5.773H13.47v1.554h3.153a3.05 3.05 0 013.05 3.05v6.246a3.05 3.05 0 01-3.05 3.05H13.47v1.554h3.153a4.61 4.61 0 004.604-4.604v-6.246a4.61 4.61 0 00-4.604-4.604z" fill="#fff"/><path d="M13.5 9.503h-.03v1.555h.03a2.442 2.442 0 110 4.884h-.03v1.554h.03a4.002 4.002 0 003.997-3.996A4.002 4.002 0 0013.5 9.503z" fill="#fff"/></svg>