<svg width="16" height="21" fill="none" xmlns="http://www.w3.org/2000/svg"><path d="M14.804 18.023l-3.057-3.478a.803.803 0 00-1.087-.11l-1.456 1.103a.799.799 0 01-1.04-.06c-.626-.606-1.392-1.224-2.796-3.659-1.404-2.435-1.559-3.405-1.771-4.25a.799.799 0 01.468-.93l1.684-.711a.803.803 0 00.448-.996L4.713.546A.803.803 0 003.732.03L1.926.548a1.968 1.968 0 00-1.163.886C-.078 2.87-1.08 6.27 2.934 13.224 6.95 20.18 10.394 21.01 12.06 21c.505-.008.988-.21 1.348-.564l1.35-1.306a.803.803 0 00.046-1.107z" fill="#D9BD89"/></svg>