<svg width="27" height="27" fill="none" xmlns="http://www.w3.org/2000/svg"><path d="M13.5 27C20.956 27 27 20.956 27 13.5S20.956 0 13.5 0 0 6.044 0 13.5 6.044 27 13.5 27z" fill="#D9BD89"/><path d="M26.996 13.188l-5.993-5.983-9.761 11.898 7.028 7.029C23.372 24.204 27 19.276 27 13.5c0-.104-.002-.209-.004-.312z" fill="#D9BD89"/><path d="M20.235 7.04a.727.727 0 01.977.827l-2.414 11.538a.76.76 0 01-1.194.457l-3.643-2.675-1.858 1.897a.617.617 0 01-1.029-.247l-1.34-4.253-3.592-1.061a.515.515 0 01-.041-.975l14.134-5.507zM18.463 9.6c.157-.138-.025-.384-.203-.273l-7.753 4.808a.353.353 0 00-.151.405l1.057 4.643c.021.07.123.06.132-.013l.236-3.538a.35.35 0 01.117-.226l6.565-5.805z" fill="#fff"/><path d="M18.26 9.327c.178-.11.36.135.203.274l-6.565 5.805a.35.35 0 00-.116.226l-.237 3.538c-.009.074-.11.084-.132.013l-1.057-4.643a.352.352 0 01.151-.404l7.753-4.809z" fill="#DDD"/><path d="M11.451 19.231a.606.606 0 01-.377-.394l-1.34-4.253-3.592-1.061a.515.515 0 01-.041-.975l14.134-5.507a.725.725 0 01.763.15l-9.59 7.828v.343l-.052-.038.053 2.158v1.73a.342.342 0 00.042.017v.002z" fill="#fff"/><path d="M21.227 7.674a.79.79 0 01-.016.193l-2.413 11.537a.76.76 0 01-1.194.458l-3.643-2.675-2.552-1.825v-.343l9.589-7.828a.759.759 0 01.134.168l.018.032.015.033c.006.011.01.022.015.034.003.01.008.02.011.033a.727.727 0 01.036.183z" fill="#F1EBDC"/><path d="M13.96 17.187l-1.857 1.896a.744.744 0 01-.098.082v.001a.648.648 0 01-.108.057c-.02.008-.037.015-.056.02a.614.614 0 01-.37-.007c-.007-.002-.013-.003-.02-.007l-.042-1.747v-2.12l2.551 1.825z" fill="#D9CAA8"/><path d="M12.055 19.128zm-.049.037v.002s0-.002-.002 0l.002-.002zm-.109.059zm-.297.041z" fill="#DADDE0"/><path d="M11.665 19.27zm-.065-.005z" fill="#fff"/><path d="M11.6 19.264zm-.13-.028l.06.018-.024-.006a.032.032 0 01-.01-.003.138.138 0 01-.026-.009z" fill="#DADDE0"/><path d="M11.506 19.249zm-.036-.013a.24.24 0 01-.016-.005l.017.005z" fill="#fff"/><path d="M11.47 19.238l-.015-.005-.004-.001v-.002a.084.084 0 00.02.008z" fill="#DADDE0"/><path d="M11.409 17.482l.042 1.748a.366.366 0 01-.042-.017v-1.73z" fill="#D1D1D1"/><path d="M18.463 9.6l-6.565 5.806a.35.35 0 00-.117.226l-.235 3.538c-.01.074-.111.084-.133.013l-1.057-4.643a.352.352 0 01.151-.405l7.753-4.808c.178-.11.36.135.203.274z" fill="#ECE6D8"/></svg>