<svg width="27" height="28" fill="none" xmlns="http://www.w3.org/2000/svg"><g clip-path="url(#clip0)"><path d="M13.5 27.002c7.456 0 13.5-6.044 13.5-13.5S20.956.002 13.5.002 0 6.046 0 13.502s6.044 13.5 13.5 13.5z" fill="#D9BD89"/><path d="M17.04 9.811l-7.58 4.053a.985.985 0 00-.43 1.104l.712 2.5a.484.484 0 00.506.353.485.485 0 00.449-.422l.185-1.37a.81.81 0 01.25-.484l6.43-5.047a.432.432 0 00-.522-.687zm-6.342 5.268a1.45 1.45 0 00-.448.864l-.09.665-.516-1.815a.345.345 0 01.15-.386l7.818-4.489-6.914 5.16z" fill="#030303"/><path d="M19.74 7.17a.735.735 0 00-.74-.125L4.47 12.649a.73.73 0 00-.471.69c.002.309.19.578.479.687l3.393 1.266 1.324 4.257a.735.735 0 001.167.352l1.973-1.609a.27.27 0 01.33-.009l3.558 2.584a.733.733 0 001.154-.445L19.985 7.88a.736.736 0 00-.245-.711zm-.38.581l-2.607 12.541a.096.096 0 01-.06.071.096.096 0 01-.094-.012l-3.559-2.584a.906.906 0 00-1.106.031l-1.974 1.61a.096.096 0 01-.09.017.096.096 0 01-.065-.065l-1.37-4.406a.319.319 0 00-.194-.205l-3.539-1.32a.093.093 0 01-.064-.093c0-.03.01-.072.063-.092l14.528-5.605a.095.095 0 01.099.017.095.095 0 01.032.095z" fill="#030303"/><path d="M17.612 9.918a.432.432 0 01-.05.58l-6.43 5.047a.81.81 0 00-.25.483l-.185 1.37a.485.485 0 01-.486.425.484.484 0 01-.469-.355l-.711-2.5a.985.985 0 01.428-1.104l7.58-4.053a.432.432 0 01.573.107zm0 0l-7.818 4.489a.345.345 0 00-.15.386l.516 1.815.09-.665a1.45 1.45 0 01.447-.864l6.915-5.16zM19.74 7.17a.735.735 0 00-.74-.125L4.47 12.649a.73.73 0 00-.471.69c.002.309.19.578.479.687l3.393 1.266 1.324 4.257a.735.735 0 001.167.352l1.973-1.609a.27.27 0 01.33-.009l3.558 2.584a.733.733 0 001.154-.445L19.985 7.88a.736.736 0 00-.245-.711zm-.38.581l-2.607 12.541a.096.096 0 01-.06.071.096.096 0 01-.094-.012l-3.559-2.584a.906.906 0 00-1.106.031l-1.974 1.61a.096.096 0 01-.09.017.096.096 0 01-.065-.065l-1.37-4.406a.319.319 0 00-.194-.205l-3.539-1.32a.093.093 0 01-.064-.093c0-.03.01-.072.063-.092l14.528-5.605a.095.095 0 01.099.017.095.095 0 01.032.095z" stroke="#030303" stroke-width=".3"/></g><defs><clipPath id="clip0"><path fill="#fff" transform="translate(0 .002)" d="M0 0h27v27H0z"/></clipPath></defs></svg>