<svg width="18" height="14" fill="none" xmlns="http://www.w3.org/2000/svg"><path d="M17.851.234a.66.66 0 00-.728-.195L.61 5.897a.91.91 0 00-.604.744c-.043.34.11.67.397.86l2.36 1.582c.228.153.522.17.767.043l5.12-2.65L4.66 9.4a.73.73 0 00-.3.586v2.71c0 .279.157.535.408.668.252.133.556.12.795-.035l1.793-1.168 1.763 1.18a.942.942 0 001.314-.272L17.904.977a.632.632 0 00-.053-.743zM9.605 12.412L7.78 11.19a.753.753 0 00-.831-.005l-1.531.996V10.14l7.046-5.164a.718.718 0 00.184-.977.747.747 0 00-.978-.256L3.204 8.124 1.208 6.786l15.205-5.393-6.808 11.02z" fill="#fff"/></svg>