<svg width="27" height="27" fill="none" xmlns="http://www.w3.org/2000/svg"><path d="M13.5 27C20.956 27 27 20.956 27 13.5S20.956 0 13.5 0 0 6.044 0 13.5 6.044 27 13.5 27z" fill="#D9BD89"/><path d="M19.357 7.407c-3.286-.794-6.578-1.722-9.948-.543-2.182.818-2.182 3.182-2.09 5.182 0 .546-.637 1.273-.364 1.91.545 1.817 1 3.636 2.909 4.545.272.181 0 .545.181.818-.09 0-.272.09-.272.182 0 .435.195 1.102.065 1.531l5.802 5.8c5.963-.95 10.624-5.805 11.28-11.862l-7.563-7.563z" fill="#D9BD89"/><path d="M20.642 9.488l-.004-.018c-.361-1.458-1.987-3.023-3.48-3.349l-.018-.003a19.341 19.341 0 00-7.28 0l-.017.003c-1.493.326-3.119 1.89-3.48 3.349l-.004.018a14.25 14.25 0 000 6.138l.004.018c.346 1.396 1.85 2.889 3.288 3.3v1.627c0 .59.719.878 1.127.453l1.649-1.714a19.41 19.41 0 004.713-.314l.017-.004c1.494-.325 3.12-1.89 3.48-3.348l.005-.018a14.25 14.25 0 000-6.138zm-1.305 5.843c-.241.951-1.476 2.134-2.457 2.352a18.032 18.032 0 01-3.872.313c-.026 0-.05.01-.068.028l-1.205 1.236-1.28 1.315a.15.15 0 01-.259-.104v-2.697a.093.093 0 00-.075-.09c-.981-.22-2.216-1.402-2.458-2.353a12.93 12.93 0 010-5.548c.242-.951 1.476-2.134 2.457-2.353a18.013 18.013 0 016.76 0c.982.219 2.216 1.402 2.457 2.353.402 1.84.402 3.707 0 5.548z" fill="#030303"/><path d="M15.634 16.575c-.15-.046-.294-.076-.428-.131-1.383-.574-2.656-1.315-3.664-2.45-.574-.645-1.023-1.374-1.402-2.145-.18-.366-.331-.745-.486-1.123-.14-.344.067-.7.285-.96.205-.243.47-.43.755-.566.223-.108.443-.046.606.143.352.41.676.839.938 1.313.16.291.117.647-.175.846-.071.048-.136.104-.202.159a.664.664 0 00-.152.16.44.44 0 00-.03.387c.36.989.967 1.758 1.963 2.173.16.066.32.143.503.122.307-.036.407-.373.622-.55a.587.587 0 01.707-.03c.227.143.447.297.665.453.215.153.429.303.627.477.19.168.255.388.148.615-.196.417-.482.763-.893.984-.117.063-.256.083-.387.123-.15-.046.131-.04 0 0zm-2.13-7.852c1.81.05 3.295 1.252 3.614 3.04.054.305.074.617.098.926.01.13-.064.254-.204.256-.145.001-.21-.12-.22-.25-.019-.258-.032-.516-.067-.771a3.233 3.233 0 00-2.604-2.703c-.202-.036-.408-.045-.613-.067-.129-.013-.298-.02-.327-.182-.024-.134.09-.242.218-.249.035-.002.07 0 .105 0 1.81.05-.035 0 0 0z" fill="#030303"/><path d="M16.254 12.288c-.003.022-.005.075-.018.125-.048.182-.323.205-.387.021a.545.545 0 01-.021-.174 2.19 2.19 0 00-.278-1.1 2.046 2.046 0 00-.858-.805 2.465 2.465 0 00-.684-.21c-.103-.017-.207-.027-.31-.042-.126-.017-.193-.097-.187-.22.005-.117.09-.2.216-.193.416.024.817.113 1.186.309.75.397 1.18 1.025 1.305 1.863.005.038.014.075.017.113.007.094.012.189.019.313-.003.022-.007-.124 0 0z" fill="#030303"/><path d="M15.128 12.244c-.15.003-.232-.08-.248-.22-.01-.096-.019-.194-.042-.288a.813.813 0 00-.3-.471.787.787 0 00-.245-.118c-.11-.033-.226-.024-.337-.05-.12-.03-.186-.128-.168-.24a.217.217 0 01.23-.175c.701.05 1.203.413 1.274 1.239.005.058.011.12-.002.176-.022.095-.093.143-.162.147-.151.003.07-.004 0 0z" fill="#030303"/><path d="M20.642 9.488l-.004-.018c-.203-.818-.803-1.667-1.554-2.315l-1.015.9c.603.481 1.12 1.147 1.268 1.728.402 1.84.402 3.707 0 5.548-.241.951-1.476 2.134-2.457 2.352a18.032 18.032 0 01-3.872.313c-.026 0-.05.01-.068.028l-1.205 1.236-1.28 1.315a.15.15 0 01-.259-.104v-2.697a.093.093 0 00-.075-.09c-.558-.125-1.197-.56-1.69-1.087l-1.003.889c.626.682 1.435 1.233 2.223 1.458v1.628c0 .59.718.879 1.127.453l1.649-1.714a19.232 19.232 0 004.713-.314l.017-.004c1.494-.325 3.12-1.89 3.48-3.348l.005-.018a14.255 14.255 0 000-6.14z" fill="#030303"/><path d="M15.634 16.575c.131-.04-.15-.046 0 0z" fill="#030303"/><path d="M16.765 14.853c-.197-.174-.411-.324-.626-.477-.218-.156-.438-.31-.665-.453a.587.587 0 00-.707.03c-.215.177-.315.514-.622.55-.184.021-.344-.056-.503-.122a3.253 3.253 0 01-1.429-1.137l-.747.662c.026.03.05.06.076.088 1.008 1.135 2.281 1.876 3.664 2.45.134.055.278.085.428.131.131-.04-.15-.046 0 0 .131-.04.27-.06.387-.123.412-.22.697-.567.893-.984.107-.227.042-.447-.149-.615zM13.51 8.725zm-.006-.002h.005c.1.004 1.733.049-.005 0zM16.1 9.8l-.32.282c.501.487.846 1.132.945 1.842.035.255.048.514.067.77.01.13.075.252.22.25.14-.001.214-.125.204-.255-.024-.31-.044-.62-.098-.926A3.63 3.63 0 0016.099 9.8zm.118 2.062c-.092-.61-.345-1.109-.766-1.488l-.318.281c.165.146.307.316.416.505.194.334.277.716.277 1.1 0 .058.003.12.022.174.064.184.34.161.387-.02.013-.05.015-.104.018-.126-.007-.124-.003.022 0 0-.007-.124-.012-.219-.019-.313-.003-.038-.012-.075-.017-.113z" fill="#030303"/><path d="M16.254 12.288c-.007-.124-.003.022 0 0zm-1.126-.044l.007-.002-.026.001.02.001z" fill="#030303"/><path d="M15.109 12.243l.02.001a.282.282 0 01-.02-.001z" fill="#030303"/><path d="M15.128 12.244l.007-.002c.01 0 .011.001-.007.002z" fill="#030303"/><path d="M14.809 10.944l-.323.286a.813.813 0 01.352.505c.023.095.032.193.042.29.015.132.09.213.229.218h.026a.18.18 0 00.155-.146c.013-.056.007-.118.002-.176-.04-.462-.215-.779-.483-.977z" fill="#030303"/></svg>