<svg width="27" height="27" fill="none" xmlns="http://www.w3.org/2000/svg"><g clip-path="url(#clip0)"><path d="M13.5 27C20.956 27 27 20.956 27 13.5 27 6.046 20.956 0 13.5 0S0 6.045 0 13.5C0 20.957 6.044 27 13.5 27z" fill="#D9BD89"/><path d="M19.357 7.407c-3.286-.793-6.578-1.722-9.948-.542-2.182.818-2.182 3.181-2.09 5.181 0 .546-.637 1.273-.364 1.91.545 1.818 1 3.636 2.909 4.545.272.182 0 .546.181.818-.09 0-.272.091-.272.182 0 .436.195 1.102.065 1.532l5.802 5.799c5.963-.95 10.624-5.805 11.28-11.861l-7.563-7.564z" fill="#D9BD89"/><path d="M15.634 16.577c-.15-.046.131-.04 0 0zM13.51 8.726zm-.005-.002h.004c.1.004 1.734.049-.004 0zM16.1 9.8l-.32.283a3.19 3.19 0 01.945 1.841c.035.256.048.514.067.772.01.13.074.251.22.25.14-.002.214-.126.203-.256-.024-.31-.043-.62-.097-.926a3.633 3.633 0 00-1.019-1.963zm.117 2.063c-.091-.61-.344-1.11-.765-1.489l-.318.282c.165.145.307.316.416.505a2.2 2.2 0 01.277 1.1c0 .058.003.12.022.175.063.183.339.16.387-.022.013-.05.014-.103.017-.125-.007-.124-.003.022 0 0-.007-.124-.011-.219-.018-.313-.003-.038-.012-.075-.018-.113z" fill="#fff"/><path d="M16.253 12.289c-.007-.124-.003.022 0 0zm-1.125-.044l.007-.002h-.026l.019.002zm-.019-.002l.019.002a.275.275 0 01-.02-.002z" fill="#fff"/><path d="M15.128 12.245l.007-.002c.01 0 .01 0-.007.002z" fill="#fff"/><path d="M20.642 9.488l-.004-.017c-.361-1.459-1.987-3.023-3.48-3.349l-.018-.003a19.341 19.341 0 00-7.28 0l-.017.003c-1.493.326-3.119 1.89-3.48 3.349l-.004.017a14.25 14.25 0 000 6.139l.004.017c.346 1.396 1.85 2.89 3.288 3.3v1.628c0 .589.719.878 1.127.453l1.649-1.714a19.232 19.232 0 004.713-.315l.017-.003c1.494-.326 3.12-1.89 3.48-3.349l.005-.017a14.25 14.25 0 000-6.139zm-1.305 5.843c-.241.952-1.476 2.134-2.457 2.353a18.025 18.025 0 01-3.872.313.09.09 0 00-.068.027l-1.205 1.237-1.28 1.314a.15.15 0 01-.259-.103v-2.697a.093.093 0 00-.075-.091c-.981-.219-2.216-1.401-2.458-2.353a12.93 12.93 0 010-5.547C7.905 8.832 9.14 7.65 10.12 7.43a18.013 18.013 0 016.76 0c.982.219 2.216 1.401 2.457 2.353.402 1.84.402 3.707 0 5.547z" fill="#fff"/><path d="M20.642 9.488l-.004-.017c-.203-.818-.803-1.668-1.554-2.315l-1.015.9c.603.481 1.12 1.147 1.268 1.728.402 1.84.402 3.707 0 5.547-.241.952-1.476 2.134-2.457 2.353a18.025 18.025 0 01-3.872.313.09.09 0 00-.068.027l-1.205 1.237-1.28 1.314a.15.15 0 01-.259-.103v-2.697a.093.093 0 00-.075-.091c-.558-.124-1.197-.56-1.69-1.087l-1.003.89c.626.682 1.435 1.233 2.223 1.458v1.628c0 .589.718.878 1.127.453l1.649-1.714a19.232 19.232 0 004.713-.315l.017-.003c1.494-.325 3.12-1.89 3.48-3.348l.005-.018a14.255 14.255 0 000-6.14z" fill="#fff"/><path d="M15.634 16.577c-.15-.046-.294-.077-.428-.133-1.383-.574-2.656-1.314-3.664-2.449-.574-.645-1.022-1.374-1.402-2.145-.18-.366-.331-.745-.486-1.123-.14-.344.067-.7.285-.96.205-.243.47-.43.755-.567.223-.107.443-.045.606.144.352.409.676.839.938 1.313.16.291.117.647-.175.846-.071.048-.136.104-.202.159a.662.662 0 00-.152.16.44.44 0 00-.03.387c.36.989.967 1.758 1.963 2.173.16.066.32.143.503.122.307-.036.407-.373.622-.55a.587.587 0 01.707-.03c.227.143.447.297.665.453.215.153.429.303.627.477.19.168.256.387.148.615-.196.417-.481.763-.893.984-.117.063-.256.083-.387.124.131-.04-.15-.046 0 0zm-2.129-7.853c1.81.05 3.294 1.252 3.613 3.04.054.305.073.617.097.926.01.13-.063.254-.203.255-.146.002-.21-.12-.22-.25-.019-.257-.032-.515-.067-.77a3.232 3.232 0 00-2.604-2.703c-.201-.036-.408-.045-.613-.067-.129-.013-.298-.021-.327-.182-.024-.134.09-.242.218-.249.035-.002.07 0 .106 0 1.81.05-.035 0 0 0z" fill="#fff"/><path d="M16.253 12.289c-.003.022-.004.075-.017.125-.048.182-.324.205-.387.021a.547.547 0 01-.022-.174 2.19 2.19 0 00-.277-1.1 2.044 2.044 0 00-.858-.805 2.462 2.462 0 00-.684-.21c-.103-.017-.207-.027-.31-.042-.126-.017-.193-.097-.187-.22.005-.117.09-.2.216-.193.416.023.817.113 1.186.309.75.397 1.179 1.025 1.304 1.863.006.038.015.075.018.113.007.094.011.189.018.313-.003.022-.007-.124 0 0z" fill="#fff"/><path d="M15.128 12.245c-.151.002-.232-.081-.248-.22-.01-.096-.019-.194-.042-.289a.813.813 0 00-.3-.47.785.785 0 00-.245-.119c-.11-.032-.226-.023-.337-.05-.12-.03-.186-.127-.167-.24a.217.217 0 01.229-.174c.701.05 1.203.413 1.274 1.239.005.058.011.12-.002.175a.18.18 0 01-.162.148c-.151.002.069-.005 0 0zm1.638 2.609c-.198-.174-.412-.324-.627-.477-.218-.156-.438-.31-.665-.454a.587.587 0 00-.707.031c-.215.177-.315.514-.622.55-.184.021-.344-.056-.503-.122a3.253 3.253 0 01-1.429-1.137l-.747.662c.026.03.05.06.076.088 1.008 1.135 2.281 1.875 3.664 2.45.134.055.278.086.428.132-.15-.046.131-.04 0 0 .131-.04.27-.061.387-.124.412-.221.697-.567.893-.984.107-.228.042-.447-.148-.615z" fill="#fff"/><path d="M14.809 10.944l-.323.287a.813.813 0 01.352.505c.023.095.032.193.042.29.015.132.09.213.229.217h.026a.179.179 0 00.155-.146c.013-.056.007-.117.002-.175-.04-.462-.215-.779-.483-.978z" fill="#fff"/></g><defs><clipPath id="clip0"><path fill="#fff" d="M0 0h27v27H0z"/></clipPath></defs></svg>