<svg width="27" height="27" fill="none" xmlns="http://www.w3.org/2000/svg"><path d="M13.5 27C20.956 27 27 20.956 27 13.5S20.956 0 13.5 0 0 6.044 0 13.5 6.044 27 13.5 27z" fill="#D9BD89"/><path d="M19.357 7.407c-3.286-.794-6.578-1.722-9.948-.543-2.182.818-2.182 3.182-2.09 5.182 0 .546-.637 1.273-.364 1.91.545 1.817 1 3.636 2.909 4.545.272.181 0 .545.181.818-.09 0-.272.09-.272.182 0 .435.195 1.102.065 1.531l5.802 5.8c5.963-.95 10.624-5.805 11.28-11.862l-7.563-7.563z" fill="#D9BD89"/><path d="M20.642 9.488l-.005-.018c-.36-1.458-1.987-3.023-3.48-3.349l-.017-.003a19.342 19.342 0 00-7.28 0l-.017.003c-1.493.326-3.12 1.89-3.48 3.349l-.004.018a14.25 14.25 0 000 6.138l.004.018c.345 1.396 1.85 2.889 3.288 3.3v1.627c0 .59.718.878 1.127.453l1.649-1.714a19.228 19.228 0 004.713-.314l.017-.004c1.493-.325 3.12-1.89 3.48-3.348l.005-.018a14.252 14.252 0 000-6.138zm-1.305 5.843c-.241.951-1.476 2.134-2.457 2.352a18.024 18.024 0 01-3.872.313.1.1 0 00-.069.028l-1.204 1.236-1.28 1.315a.15.15 0 01-.259-.104v-2.697a.093.093 0 00-.075-.09h-.001c-.981-.22-2.215-1.402-2.457-2.353a12.93 12.93 0 010-5.548c.242-.951 1.476-2.134 2.457-2.353a18.013 18.013 0 016.76 0c.982.219 2.216 1.402 2.457 2.353.401 1.84.401 3.707 0 5.548z" fill="#fff"/><path d="M15.634 16.575c-.15-.045-.294-.076-.428-.131-1.383-.574-2.656-1.315-3.665-2.45-.573-.645-1.022-1.374-1.401-2.145-.18-.365-.332-.745-.486-1.123-.141-.344.066-.7.285-.96a2.25 2.25 0 01.755-.566c.223-.108.443-.046.606.143.352.41.675.839.937 1.313.162.291.117.647-.175.846-.07.048-.135.105-.201.159a.662.662 0 00-.153.16.44.44 0 00-.03.387c.361.989.968 1.758 1.964 2.173.159.066.319.143.503.122.307-.036.407-.373.622-.55a.587.587 0 01.707-.03c.227.143.447.297.665.453.215.153.428.303.626.477.19.168.256.388.149.615-.196.417-.482.763-.894.985-.116.062-.255.082-.386.122-.15-.045.131-.04 0 0zm-2.13-7.852c1.81.05 3.295 1.252 3.614 3.04.054.305.073.617.097.926.01.13-.063.254-.203.256-.146.001-.21-.12-.22-.25-.019-.258-.032-.516-.067-.771A3.233 3.233 0 0014.12 9.22c-.202-.036-.408-.045-.613-.066-.13-.014-.298-.022-.327-.183-.024-.134.09-.242.218-.248.035-.003.07 0 .105 0 1.81.05-.035 0 0 0z" fill="#fff"/><path d="M16.254 12.288c-.003.022-.005.075-.018.125-.048.182-.324.205-.387.021a.546.546 0 01-.022-.174c0-.383-.084-.766-.277-1.1a2.047 2.047 0 00-.858-.805 2.467 2.467 0 00-.684-.21c-.103-.017-.207-.027-.31-.042-.126-.017-.194-.097-.188-.22.006-.117.09-.2.217-.193a2.85 2.85 0 011.186.309c.75.397 1.18 1.025 1.304 1.863.006.038.015.075.018.113.007.094.012.189.019.313-.003.022-.008-.124 0 0z" fill="#fff"/><path d="M15.128 12.244c-.151.003-.232-.08-.248-.22-.01-.096-.02-.194-.042-.288a.813.813 0 00-.3-.471.786.786 0 00-.245-.118c-.11-.033-.226-.024-.337-.05-.12-.03-.187-.128-.168-.24a.217.217 0 01.23-.175c.7.05 1.202.413 1.274 1.239a.61.61 0 01-.002.176c-.022.095-.093.143-.162.147-.151.003.069-.004 0 0z" fill="#fff"/><path d="M20.642 9.489l-.005-.018c-.202-.818-.802-1.668-1.553-2.316l-1.016.9c.604.481 1.122 1.148 1.269 1.729.401 1.84.401 3.707 0 5.547-.241.952-1.476 2.135-2.457 2.353a18.032 18.032 0 01-3.872.313.1.1 0 00-.069.028l-1.204 1.236-1.28 1.315a.15.15 0 01-.259-.104v-2.697a.093.093 0 00-.075-.09h-.001c-.558-.125-1.197-.56-1.689-1.088l-1.004.889c.627.682 1.436 1.233 2.224 1.458v1.628c0 .59.718.879 1.126.453l1.65-1.714a19.232 19.232 0 004.713-.314l.017-.004c1.493-.325 3.12-1.89 3.48-3.348l.005-.018a14.25 14.25 0 000-6.138z" fill="#fff"/><path d="M15.634 16.576c.131-.04-.15-.046 0 0z" fill="#fff"/><path d="M16.765 14.853c-.198-.174-.411-.323-.626-.476-.218-.156-.438-.31-.665-.454a.587.587 0 00-.707.03c-.215.177-.315.514-.622.55-.184.022-.344-.056-.503-.122a3.254 3.254 0 01-1.43-1.137l-.746.662.075.089c1.009 1.135 2.282 1.875 3.665 2.449.133.055.277.086.428.132-.15-.046.131-.04 0 0 .131-.04.27-.06.386-.123.412-.221.698-.568.894-.985.107-.227.042-.447-.149-.615zM13.51 8.725h-.001zm-.005-.001h.004c.1.003 1.734.048-.004 0zM16.099 9.8l-.318.282c.5.487.845 1.132.943 1.842.036.255.049.514.067.771.01.13.075.252.22.25.14-.002.214-.125.204-.255-.024-.31-.043-.621-.098-.926A3.633 3.633 0 0016.1 9.8zm.118 2.062c-.091-.61-.345-1.109-.765-1.488l-.318.281c.164.146.306.317.416.506.193.333.276.716.277 1.1 0 .058.003.12.022.174.063.183.338.16.386-.021.014-.05.015-.103.018-.126-.003.023-.007-.124 0 0-.007-.124-.011-.218-.018-.312-.003-.038-.012-.076-.018-.114z" fill="#fff"/><path d="M16.253 12.288c-.007-.124-.003.022 0 0zm-1.125-.044l.007-.002-.027.001.02.001zm0 .001l-.02-.001a.272.272 0 00.02.001zm.007-.003l-.007.002c.018-.001.016-.002.007-.002z" fill="#fff"/><path d="M14.809 10.944l-.324.286a.814.814 0 01.352.505c.024.095.032.193.043.29.015.132.09.213.229.218h.026a.18.18 0 00.155-.147c.013-.056.007-.117.002-.175-.04-.462-.215-.779-.483-.977z" fill="#fff"/></svg>