<svg width="27" height="27" fill="none" xmlns="http://www.w3.org/2000/svg"><path d="M13.5 27C20.956 27 27 20.956 27 13.5S20.956 0 13.5 0 0 6.044 0 13.5 6.044 27 13.5 27z" fill="#D9BD89"/><path fill-rule="evenodd" clip-rule="evenodd" d="M19.306 7.672a7.385 7.385 0 00-5.258-2.18c-4.097 0-7.431 3.334-7.433 7.433 0 1.31.342 2.588.992 3.716l-1.054 3.851 3.94-1.033a7.426 7.426 0 003.552.904h.003c4.097 0 7.431-3.334 7.433-7.432a7.387 7.387 0 00-2.175-5.259zm-5.258 11.436h-.002a6.172 6.172 0 01-3.145-.861l-.225-.134-2.339.613.624-2.28-.146-.233a6.162 6.162 0 01-.945-3.288 6.187 6.187 0 016.18-6.177c1.65 0 3.202.644 4.368 1.811a6.14 6.14 0 011.808 4.371 6.187 6.187 0 01-6.178 6.178zm3.389-4.627c-.186-.093-1.099-.542-1.27-.604-.17-.062-.293-.093-.417.093s-.48.604-.588.728c-.109.124-.217.14-.403.046-.185-.092-.784-.289-1.493-.921a5.605 5.605 0 01-1.033-1.287c-.109-.186-.001-.277.081-.379.201-.25.402-.511.464-.635s.031-.233-.015-.326c-.046-.092-.418-1.007-.573-1.379-.15-.362-.303-.313-.418-.318a7.424 7.424 0 00-.356-.007.682.682 0 00-.495.232c-.17.186-.65.636-.65 1.55s.666 1.797.759 1.921c.092.124 1.31 2 3.172 2.804.443.192.79.306 1.059.392.445.141.85.121 1.17.073.357-.053 1.098-.45 1.253-.883.155-.434.155-.806.109-.883-.047-.078-.17-.124-.356-.217z" fill="#fff"/></svg>