<svg width="23" height="23" fill="none" xmlns="http://www.w3.org/2000/svg"><g clip-path="url(#clip0)"><path d="M22.616 0H5.366a.383.383 0 00-.383.383v5.75h.767V.767h16.483V21.85a.377.377 0 01-.353.383l-.099-.003c-.068-.002-.136-.004-.202-.01-.006 0-.011 0-.017-.003a2.687 2.687 0 01-2.379-2.377l-.003-.016a2.667 2.667 0 01-.014-.274v-.767a.383.383 0 00-.383-.383H5.75v-6.9h-.767v6.9H1.917a.383.383 0 00-.384.383v.767A3.454 3.454 0 004.983 23h16.905A1.142 1.142 0 0023 21.85V.383A.383.383 0 0022.616 0zM4.983 22.233A2.686 2.686 0 012.3 19.55v-.383h16.1v.383c0 .126.008.253.022.378.003.034.01.066.014.099.013.093.028.185.049.276.006.032.015.063.023.095a3.52 3.52 0 00.226.629l.027.055c.048.098.1.192.158.284l.023.038c.062.098.13.193.201.284l.013.016a3.502 3.502 0 00.525.53H4.983z" fill="url(#paint0_linear)"/><path d="M12.65 10.733a.38.38 0 00.27-.112l1.534-1.533a.383.383 0 000-.542l-1.533-1.534a.383.383 0 00-.271-.112H1.917a1.917 1.917 0 000 3.833H12.65zm-.099-3.007l1.09 1.09-1.09 1.09-.273-1.09.273-1.09zm-9.484-.06h8.709l-.192.767h-7.75V9.2h7.75l.192.767h-8.71v-2.3zm-2.3 1.15c0-.635.514-1.15 1.15-1.15H2.3v2.3h-.383a1.15 1.15 0 01-1.15-1.15z" fill="url(#paint1_linear)"/><path d="M8.816 16.483h11.5a.383.383 0 00.384-.383V4.6a.383.383 0 00-.655-.271l-11.5 11.5a.383.383 0 00.271.654zM19.933 5.525v.992h-.767v.766h.767v.767h-.767v.767h.767v.766h-.767v.767h.767v.767h-.767v.766h.767v.767h-.767v.767h.767v.766h-.767v.767h.767v.767h-.767v-.767H18.4v.767h-.767v-.767h-.767v.767H16.1v-.767h-.767v.767h-.767v-.767H13.8v.767h-.767v-.767h-.766v.767H11.5v-.767h-.767v.767h-.991L19.933 5.525z" fill="url(#paint2_linear)"/><path d="M14.37 14.183h3.647a.383.383 0 00.383-.383v-3.648a.383.383 0 00-.654-.27l-3.648 3.647a.383.383 0 00.271.654zm3.263-3.105v2.338h-2.338l2.338-2.338z" fill="url(#paint3_linear)"/><path d="M17.633 2.3H9.967v.766h7.666V2.3z" fill="url(#paint4_linear)"/><path d="M18.783 3.833H8.817V4.6h9.966v-.766z" fill="url(#paint5_linear)"/><path d="M8.816 11.883h-2.3v.767h2.3v-.767z" fill="url(#paint6_linear)"/><path d="M8.05 13.416H6.516v.767H8.05v-.767z" fill="url(#paint7_linear)"/></g><defs><linearGradient id="paint0_linear" x1="1.533" y1="11.597" x2="23" y2="11.597" gradientUnits="userSpaceOnUse"><stop stop-color="#BFA874"/><stop offset=".521" stop-color="#EED9AB"/><stop offset="1" stop-color="#BFA874"/></linearGradient><linearGradient id="paint1_linear" x1="0" y1="8.833" x2="14.566" y2="8.833" gradientUnits="userSpaceOnUse"><stop stop-color="#BFA874"/><stop offset=".521" stop-color="#EED9AB"/><stop offset="1" stop-color="#BFA874"/></linearGradient><linearGradient id="paint2_linear" x1="8.433" y1="10.402" x2="20.7" y2="10.402" gradientUnits="userSpaceOnUse"><stop stop-color="#BFA874"/><stop offset=".521" stop-color="#EED9AB"/><stop offset="1" stop-color="#BFA874"/></linearGradient><linearGradient id="paint3_linear" x1="13.986" y1="11.995" x2="18.4" y2="11.995" gradientUnits="userSpaceOnUse"><stop stop-color="#BFA874"/><stop offset=".521" stop-color="#EED9AB"/><stop offset="1" stop-color="#BFA874"/></linearGradient><linearGradient id="paint4_linear" x1="9.967" y1="2.686" x2="17.633" y2="2.686" gradientUnits="userSpaceOnUse"><stop stop-color="#BFA874"/><stop offset=".521" stop-color="#EED9AB"/><stop offset="1" stop-color="#BFA874"/></linearGradient><linearGradient id="paint5_linear" x1="8.817" y1="4.22" x2="18.783" y2="4.22" gradientUnits="userSpaceOnUse"><stop stop-color="#BFA874"/><stop offset=".521" stop-color="#EED9AB"/><stop offset="1" stop-color="#BFA874"/></linearGradient><linearGradient id="paint6_linear" x1="6.516" y1="12.27" x2="8.816" y2="12.27" gradientUnits="userSpaceOnUse"><stop stop-color="#BFA874"/><stop offset=".521" stop-color="#EED9AB"/><stop offset="1" stop-color="#BFA874"/></linearGradient><linearGradient id="paint7_linear" x1="6.516" y1="13.803" x2="8.05" y2="13.803" gradientUnits="userSpaceOnUse"><stop stop-color="#BFA874"/><stop offset=".521" stop-color="#EED9AB"/><stop offset="1" stop-color="#BFA874"/></linearGradient><clipPath id="clip0"><path fill="#fff" d="M0 0h23v23H0z"/></clipPath></defs></svg>