<svg width="21" height="22" fill="none" xmlns="http://www.w3.org/2000/svg"><path d="M20.556 3.286A.444.444 0 0021 2.842v-1.4a.444.444 0 00-.444-.444H.444A.444.444 0 000 1.442v20.112c0 .245.199.444.444.444h20.111a.444.444 0 00.445-.444V4.323a.444.444 0 10-.889 0v7.614h-1.765a.444.444 0 100 .889h1.765v8.283H7.414v-2.15a.444.444 0 00-.89 0v2.15H.89V1.887h5.636v13.872a.444.444 0 00.889 0v-2.933h7.91a.444.444 0 100-.889h-7.91V1.887H20.11v.955c0 .245.2.444.445.444z" fill="url(#paint0_linear)"/><defs><linearGradient id="paint0_linear" x1="0" y1="11.586" x2="21" y2="11.586" gradientUnits="userSpaceOnUse"><stop stop-color="#BFA874"/><stop offset=".521" stop-color="#EED9AB"/><stop offset="1" stop-color="#BFA874"/></linearGradient></defs></svg>